<svg xmlns="http://www.w3.org/2000/svg" width="48" height="48" viewBox="0 0 48 48" fill="none" stroke="white" stroke-width="1.5" stroke-linecap="round" stroke-linejoin="round">
  <path d="M8 10C8 8.9 8.9 8 10 8H20C21.1 8 22 8.9 22 10V38C22 39.1 21.1 40 20 40H10C8.9 40 8 39.1 8 38V10Z"/>
  <path d="M26 10C26 8.9 26.9 8 28 8H38C39.1 8 40 8.9 40 10V38C40 39.1 39.1 40 38 40H28C26.9 40 26 39.1 26 38V10Z"/>
  <path d="M22 12H26"/>
  <path d="M22 36H26"/>
  <line x1="12" y1="14" x2="18" y2="14"/>
  <line x1="12" y1="18" x2="18" y2="18"/>
  <line x1="30" y1="14" x2="36" y2="14"/>
  <line x1="30" y1="18" x2="36" y2="18"/>
  <path d="M15 24C15 24 17 22 19 24C21 26 23 24 23 24" stroke-width="1"/>
  <path d="M29 24C29 24 31 22 33 24C35 26 37 24 37 24" stroke-width="1"/>
</svg>